<svg xmlns="http://www.w3.org/2000/svg" version="1" width="112" height="112" viewBox="0 0 84 84"><path d="M33 4c-1.1 1.1-2 2.4-2 2.9s-5 3.7-11 7.1C3.1 23.5 4.5 21 4.2 40.2c-.2 11.8.1 17 1 18.8 1.5 2.8 29.2 19.3 31.7 18.8 1-.2 1.6-1.4 1.6-3.3 0-2.7-.9-3.5-11.4-9.6-8.3-4.9-10.8-6.8-9.5-7.3 1.1-.3 10.7-2.8 21.4-5.7 10.7-2.8 20.3-5.8 21.3-6.7 1.9-1.7 2.4-6.2.6-6.2-.6 0-10.3 2.5-21.7 5.5C17.9 50.2 15 51.6 15 56.2c0 1.7-.3 1.8-1.5.8S12 52.9 12 41.5V27.2l11.3-6.6C29.6 17 35.8 14 37.2 14c3.1 0 5.8-2.9 5.8-6.3C43 2.4 36.9.1 33 4z"/><path d="M45.4 8.4C44 12 45.9 13.7 58.7 21l13.2 7.5.1 14.7v14.6l-10.9 6.1c-6 3.4-12 6.1-13.3 6.1-3.7 0-6.8 2.7-6.8 5.9 0 5.9 7.3 8.3 10.7 3.5 1-1.4 7.5-5.8 14.3-9.7l12.5-7.2.3-18.4c.2-12.2-.1-18.8-.8-19.7C76.3 22.4 49.3 7 47.5 7c-.8 0-1.8.6-2.1 1.4z"/><path d="M40 26.4c-6.3 1.7-12.3 3.5-13.2 3.9-2.3.8-2.5 6.7-.2 6.7 2.5 0 24.8-6.1 26.2-7.2.6-.6 1.2-2.3 1.2-3.9 0-3.5.5-3.5-14 .5zM45.8 33.5c-10.8 2.9-20.2 5.6-20.8 6-1.6 1-3.2 5.7-2.3 6.6.7.7 12.5-2.2 40.9-10 3.8-1 6.4-4 6.4-7.1 0-1.7-3.9-1-24.2 4.5zM54 50.5c-2.5.8-8.2 2.4-12.8 3.6-6.6 1.7-8.6 2.7-9.4 4.5-.6 1.2-.8 2.9-.5 3.8.5 1.2 2.6.9 13.9-2.1 13.4-3.5 16.1-5 15.6-8.7-.4-2.5-1.4-2.7-6.8-1.1z"/></svg>